<svg width="101" height="16" viewBox="0 0 101 16" fill="none" xmlns="http://www.w3.org/2000/svg">
<path d="M0.28 0.999999H1.76V13.72H9.6V15H0.28V0.999999ZM20.8764 11.26H13.0764L11.3964 15H9.85641L16.2564 0.999999H17.7164L24.1164 15H22.5564L20.8764 11.26ZM20.3364 10.06L16.9764 2.54L13.6164 10.06H20.3364ZM31.7794 15.12C29.966 15.12 28.5527 14.6 27.5394 13.56C26.526 12.52 26.0194 11.0067 26.0194 9.02V0.999999H27.4994V8.96C27.4994 10.5867 27.866 11.8 28.5994 12.6C29.3327 13.4 30.3927 13.8 31.7794 13.8C33.1794 13.8 34.246 13.4 34.9794 12.6C35.7127 11.8 36.0794 10.5867 36.0794 8.96V0.999999H37.5194V9.02C37.5194 11.0067 37.0127 12.52 35.9994 13.56C34.9994 14.6 33.5927 15.12 31.7794 15.12ZM45.8392 15.12C44.7992 15.12 43.7992 14.9533 42.8392 14.62C41.8926 14.2867 41.1592 13.8467 40.6392 13.3L41.2192 12.16C41.7259 12.6667 42.3992 13.08 43.2392 13.4C44.0792 13.7067 44.9459 13.86 45.8392 13.86C47.0926 13.86 48.0326 13.6333 48.6592 13.18C49.2859 12.7133 49.5992 12.1133 49.5992 11.38C49.5992 10.82 49.4259 10.3733 49.0792 10.04C48.7459 9.70667 48.3326 9.45333 47.8392 9.28C47.3459 9.09333 46.6592 8.89333 45.7792 8.68C44.7259 8.41333 43.8859 8.16 43.2592 7.92C42.6326 7.66667 42.0926 7.28667 41.6392 6.78C41.1992 6.27333 40.9792 5.58667 40.9792 4.72C40.9792 4.01333 41.1659 3.37333 41.5392 2.8C41.9126 2.21333 42.4859 1.74667 43.2592 1.4C44.0326 1.05333 44.9926 0.879999 46.1392 0.879999C46.9392 0.879999 47.7192 0.993333 48.4792 1.22C49.2526 1.43333 49.9192 1.73333 50.4792 2.12L49.9792 3.3C49.3926 2.91333 48.7659 2.62667 48.0992 2.44C47.4326 2.24 46.7792 2.14 46.1392 2.14C44.9126 2.14 43.9859 2.38 43.3592 2.86C42.7459 3.32667 42.4392 3.93333 42.4392 4.68C42.4392 5.24 42.6059 5.69333 42.9392 6.04C43.2859 6.37333 43.7126 6.63333 44.2192 6.82C44.7392 6.99333 45.4326 7.18667 46.2992 7.4C47.3259 7.65333 48.1526 7.90667 48.7792 8.16C49.4192 8.4 49.9592 8.77333 50.3992 9.28C50.8392 9.77333 51.0592 10.4467 51.0592 11.3C51.0592 12.0067 50.8659 12.6533 50.4792 13.24C50.1059 13.8133 49.5259 14.2733 48.7392 14.62C47.9526 14.9533 46.9859 15.12 45.8392 15.12ZM59.9239 15.12C58.1106 15.12 56.6972 14.6 55.6839 13.56C54.6706 12.52 54.1639 11.0067 54.1639 9.02V0.999999H55.6439V8.96C55.6439 10.5867 56.0106 11.8 56.7439 12.6C57.4772 13.4 58.5372 13.8 59.9239 13.8C61.3239 13.8 62.3906 13.4 63.1239 12.6C63.8572 11.8 64.2239 10.5867 64.2239 8.96V0.999999H65.6639V9.02C65.6639 11.0067 65.1572 12.52 64.1439 13.56C63.1439 14.6 61.7372 15.12 59.9239 15.12ZM73.9838 15.12C72.9438 15.12 71.9438 14.9533 70.9838 14.62C70.0371 14.2867 69.3038 13.8467 68.7838 13.3L69.3638 12.16C69.8704 12.6667 70.5438 13.08 71.3838 13.4C72.2238 13.7067 73.0904 13.86 73.9838 13.86C75.2371 13.86 76.1771 13.6333 76.8038 13.18C77.4304 12.7133 77.7438 12.1133 77.7438 11.38C77.7438 10.82 77.5704 10.3733 77.2238 10.04C76.8904 9.70667 76.4771 9.45333 75.9838 9.28C75.4904 9.09333 74.8038 8.89333 73.9238 8.68C72.8704 8.41333 72.0304 8.16 71.4038 7.92C70.7771 7.66667 70.2371 7.28667 69.7838 6.78C69.3438 6.27333 69.1238 5.58667 69.1238 4.72C69.1238 4.01333 69.3104 3.37333 69.6838 2.8C70.0571 2.21333 70.6304 1.74667 71.4038 1.4C72.1771 1.05333 73.1371 0.879999 74.2838 0.879999C75.0838 0.879999 75.8638 0.993333 76.6238 1.22C77.3971 1.43333 78.0638 1.73333 78.6238 2.12L78.1237 3.3C77.5371 2.91333 76.9104 2.62667 76.2438 2.44C75.5771 2.24 74.9238 2.14 74.2838 2.14C73.0571 2.14 72.1304 2.38 71.5038 2.86C70.8904 3.32667 70.5838 3.93333 70.5838 4.68C70.5838 5.24 70.7504 5.69333 71.0838 6.04C71.4304 6.37333 71.8571 6.63333 72.3638 6.82C72.8838 6.99333 73.5771 7.18667 74.4438 7.4C75.4704 7.65333 76.2971 7.90667 76.9238 8.16C77.5638 8.4 78.1038 8.77333 78.5438 9.28C78.9838 9.77333 79.2038 10.4467 79.2038 11.3C79.2038 12.0067 79.0104 12.6533 78.6238 13.24C78.2504 13.8133 77.6704 14.2733 76.8838 14.62C76.0971 14.9533 75.1304 15.12 73.9838 15.12ZM94.1284 0.999999V15H92.6684V8.54H83.9084V15H82.4284V0.999999H83.9084V7.24H92.6684V0.999999H94.1284ZM98.698 0.999999H100.178V15H98.698V0.999999Z" fill="white"/>
</svg>
